<?xml version="1.0"?>
<svg xmlns:rdf="http://www.w3.org/1999/02/22-rdf-syntax-ns#" xmlns="http://www.w3.org/2000/svg" xmlns:cc="http://web.resource.org/cc/" xmlns:dc="http://purl.org/dc/elements/1.1/" id="img" viewBox="0 0 284.73 227.31" version="1.0">
  <g id="layer1" transform="translate(-52.248 183.08)">
    <path fill="currentColor" id="path2020" d="m259.67 9.8788c-4.01-2.1426-8.51-3.2348-12.89-4.3921-2.54-0.9188-5.19 0.2685-7.71-0.8046-2.35-0.9216-4.14 1.1794-6.57-0.004-2.84-0.8721-5.41 0.89-8.23 0.863-4.06 0.174-8.23 0.4183-12.21-0.554-1.09-2.5563 3.98-2.9651 5.75-3.56 6.89-1.2175 13.93-1.8115 20.64-3.8775 1.4-1.3491-4.06-0.5469-5.23-1.0108-1.55 0.1187-4.83-1.4908-1.5-1.6052 4.33-0.2157 8.73-0.4238 13.03 0.1794 3.53 0.0823-0.26 5.7976 3.68 4.2562 3.42-0.07182 5.06-2.9523 4.01-5.9739 1.99-1.0375 4.87-1.1051 6.47-3.2343 2.64-3.072 6.73-4.168 10.65-4.234 6.45-0.481 13.04 0.55 19.4-0.924 3.74-1.219 7.49-2.616 10.89-4.621 2.23-1.317 3.03-4.019 0.92-5.536 1.1-1.428 4.1-2.608 2.07-4.454 1.44-1.341 3.4-2.929 1.06-4.679-0.35-2.579 3.54 0.918 2.88 2.496 0.53 2.489-3.87 4.905-2.63 6.52 2.58 1.177 2.1 5.081 4.67 6.388 2.26 1.017 0.44 5.652 3.98 4.461 1.49-0.609 4.96-0.013 2.05 1.415-2.82 0.727-4.07 3.4769-3.64 6.219 0.01 3.5534-3.43 5.552-5.64 7.8018-5.47 3.9772-12.19 5.692-18.68 7.2343-8.68 1.8789-17.64 2.6689-26.49 1.8499l-0.34-0.067-0.39-0.1522zm13.83-2.8123c-1.24-0.7968-4.36 0.6348-1.25 0.5044 0.23-0.0103 2.25 0.0082 1.25-0.5044zm-30.75-3.3377c-1.25-2.767-2.41 1.5932-0.08 0.9211 0.35-0.173 0.27-0.6691 0.08-0.9211zm32.5-1c-0.73-2.86-3.53 1.3582-0.61 0.9211 0.36-0.1497 0.61-0.5272 0.61-0.9211zm3 0c-0.73-2.86-3.53 1.3582-0.61 0.9211 0.36-0.1497 0.61-0.5272 0.61-0.9211zm-11-1c-1.7-1.7457-6.01-1.148-7.43 0.6206 2.33 0.5836 5.13 0.6363 7.34-0.42l0.09-0.2006zm-10.81-2.6831c-1.49-0.88581-2.86 0.89702-0.61 0.60416 0.39 0.01061 1.82-0.17108 0.61-0.60416zm-50.19 0.68311c1.71-0.79102 5.59-1.9165 6.5 0-2.01 1.2333-4.82 1.2283-7.03 0.62609-0.08-0.32082 0.38-0.4573 0.53-0.62609zm42.08-3.4166c0.14-3.6226 1.5 1.7237 0.07 0.698l-0.05-0.3049-0.02-0.3931zm18.97-13.011c-1.62-1.788-5.96 0.661-4.83-2.907-1.08-2.303-4.88 0.198-7.09-0.044-3.94 0.507-7.88 1.436-11.86 1.325-2.33-0.294 2.18-3.208-0.85-2.943-4.16 0.364-8.21 1.612-12.41 1.682-8.65 0.522-17.35 0.848-26.01 0.289-2.82 0.128-0.94-1.48 0.68-1.412 9.53-0.601 19.07-1.389 28.56-2.472 1.48 0.082 3.72-1.005 0.93-1.028-11.17-0.493-22.28 1.731-33.46 1.266-5.5-0.207-11.07-0.148-16.5-1.116-0.68-1.589 6.64-1.403 2.59-1.81-6.51-0.453-13.12 0.103-19.55-1.127 0.4-1.71 4.24-0.139 6.06-0.504 6.11 0.313 12.28-0.164 18.35 0.704 1.61 1.342 4.2 1.001 6.38 1.159 6.71 0.03 13.48 0.191 20.14-0.767 1.08-0.795-2.89-0.543-3.75-0.701-5.68-0.268-11.42 0.217-17.08-0.48 4.78-0.786 9.7-0.755 14.55-1.06 9.97-0.516 20.07-0.75 29.8-3.168 3.56-1.007 7.19-3.249 11-2.09 2.53 2.164-3.2 1.382-4.45 2.071-2.84 0.82-5.45 2.465-8.49 2.579-2.04 0.195-5.29 0.087-6.45 1.352 5.19 0.427 10.41-0.329 15.59-0.681 3.17-0.162 6.39-0.953 9.54-0.343 1.81 1.244-4.47 3.646-0.73 3.287 2.16-0.32 5.39-1.273 5.77 1.687 1.78 1.163 4 0.934 6.02 1.272-2 0.871-4 1.743-6 2.614 2.03 0.908 4.18 1.479 6.43 1.361 5.79-0.01 11.65-0.183 17.31-1.484 2.64-1.054 5.52 0.022 8.23-1.074 1.07-0.62 4.88-0.414 2.33 0.956-6.17 2.12-12.69 3.065-19.16 3.739-2.26 0.471-5.09-0.599-6.99 0.546 0 1.826-3.75-0.329-4.6-0.678zm-42.8-11.234c-1.24-0.797-4.36 0.634-1.25 0.504 0.23-0.01 2.25 0.008 1.25-0.504zm96.75 7.662c1.58-1.341 4.91-1.432 6.56-0.214-1.35 1.536-5.17 1.801-6.56 0.214zm-168-6.786c0.97-2.054 6.21 0.208 2.4 0.77-0.77 0.004-2.04 0.074-2.4-0.77zm5-0.214c1.91-1.443 4.94-1.137 7.22-0.582 0.38 1.942-4.1 1.642-5.7 1.41-0.49-0.153-1.36-0.218-1.52-0.828zm14.59-3.857c-2.39-1.785-5.63-1.821-8.47-2.36-3.59-0.474-7.34-0.495-10.71-1.982-2.69-0.353-5.3 1.124-8.04 0.576-8.91-0.928-17.91-0.769-26.78-2.043-3.75-0.901 2.5-1.237 3.67-1.187 7.48-0.149 14.96 0.13 22.43-0.195 3.29 0.149 6.54 0.691 9.81 1.095-5.32-1.768-10.76-3.393-15.5-6.477-3.46-1.86-7.51-1.48-11.23-2.41-4-0.824-8.07-1.552-11.86-3.09-2.22-1.636-5.25-0.576-7.57-2.027-2.12-1.467-4.48-2.736-7.17-2.309-3.571 0.02-7.22 1.046-10.741 0.18-1.738-2.012-4.576-1.87-7.014-1.999-2.725 0.25-2.923-2.232-0.063-1.819 2.553 0.041 5.296 0.463 7.558-0.968 1.708-0.558 2.78 0.33 0.651 1.187-1.499 2.228 3.695 2.67 5.294 2.611 2.735 0.041 5.515-0.513 7.765-2.123 1.16-0.287 3.34 0.227 1.65-1.523-3.17-1.438-6.81-0.49-10.13-1.337-2.762-1.415-5.491 0.036-8.286 0.39-6.949 0.633-13.972 0.743-20.929 0.184-1.51 0.639-5.496-2.864-2.191-2.173 2.349 0.123 5.576 2.457 6.876-0.003 1.56 0.957 1.725-1.943 3.697-1.201 7.168 0.023 14.317 0.784 21.459 1.33 4.284 0.391 8.594 0.872 12.684 2.23 3.93 0.428 7.34-2.136 11.06-2.969 4.37-0.836 8.28-3.184 12.21-5.191 1.55-0.515 3.36-2.22 0.78-2.902-3.56-1.567 2.02-3.921 3.46-4.785 3.37-1.875 7.06-3.336 10.04-5.797-0.41-1.365-6.15-2.469-2.71-2.522 6.79 0.812 13.63-0.746 20.04-2.896 4.55-1.687 8.33-4.854 12.67-6.977 5.89-3.409 12.69-4.763 19.44-4.933 10.9-0.468 21.96 0.009 32.67-2.487 9.1-1.45 18.44 0.01 27.07 3.074 3.48 2.193 3.65-2.997 4.89-5.164 1.95-2.7-0.09-5.25-2.86-5.97-5.09-2.43-10.72-3.54-15.66-6.25-2.55-1.52-5.95-0.34-8.22-2.56-7.44-2.62-15.43-2.92-23.2-3.92-6.99-0.87-14.05-1.2-20.97-2.52-2.21 0.05-3.53-2.19-0.96-3.12 3.62-1.85 7.63-2.98 11.63-3.66 2.77 0.13 5.29-1.39 8.05-1.6 6.53-1.31 13.19-1.93 19.66-3.49 4.51-1.1 8.2-4.06 11.3-7.38 5.89-5.05 13.71-7.14 21.24-8.19 6.69-0.09 13.38 1.05 19.84 2.72 5.68 1.58 9.92 6.07 13.7 10.35 3.47 4.07 6.37 9 6.42 14.5 0.2 5.21 0.23 10.55-1.53 15.54-1.56 5.75-4.16 11.387-4.2 17.43 1.14 3.367 3.57 6.139 5.71 8.929 2.65 3.215 5.03 6.648 7.14 10.232 2.36 1.375 2.69 4.382 3.29 6.853 1.94 7.535-1.5 16.182-8.4 19.946-7.43 4.028-16.1 4.553-24.36 5.146-7 0.278-14.03 0.649-21.02 0.112-1.81 0.081 1.44-1.592-0.7-1.171-2.52 1.49-5.28 2.586-8.11 3.43-6.89 2.109-13.85 4.202-21 5.238-14.2 0.888-28.43 0.855-42.65 0.886-4.19-0.126-8.48 0.131-12.62-0.489zm50.91-5.143c-0.83-1.882-3.48-0.529-1.27 0.706 0.59 0.543 1.96 0.314 1.27-0.706zm7.5 0c-0.73-2.86-3.53 1.358-0.61 0.921 0.36-0.15 0.61-0.527 0.61-0.921zm-51.5-2c-1.25-2.767-2.41 1.593-0.08 0.921 0.35-0.173 0.27-0.669 0.08-0.921zm33 0c-1.25-2.767-2.41 1.593-0.08 0.921 0.35-0.173 0.27-0.669 0.08-0.921zm28-1c-1.25-2.767-2.41 1.593-0.08 0.921 0.35-0.173 0.27-0.669 0.08-0.921zm-79.5-1c-0.79-2.716-5.07 0.707-1.5 1 0.6 0 1.45-0.28 1.5-1zm46 0c-0.73-2.86-3.53 1.358-0.61 0.921 0.36-0.15 0.61-0.527 0.61-0.921zm49.29-2.018c1.47-1.607 3.22-1.371 4.58-0.041 2.6-0.854 3.09-4.146 5.08-5.723-0.38 2.837-2.44 5.364-4.63 7.144 0.69 1.686 4.45-0.322 5.43-1.83 0.81-1 1.59-2.023 2.38-3.032-0.21 1.538-0.93 3.081-0.65 4.629 2.48 1.304 5.65 0.495 8.4 0.684 8.54-0.452 17.26-1.79 25.01-5.583 1.88-1.266 4.79-2.307 4.98-4.908 0.19-1.309-1.45-5.702 0.85-5.028 0.04 2.641 3.46 1.533 1.84-0.627-0.95-2.383-3.27-4.049-3.91-6.533 1.5-0.318 4.93 4.986 4.77 1.307-0.63-2.437-1.41-6.155-4.62-6.04-2.38-0.571-1.55-2.757 0.53-1.863-0.46-1.562-4.02-3.091-3.32-4.231 1.2 0.611 2.64 0.622 1.08-0.768-3.16-3.667-6.19-7.621-10.24-10.357-3.19-0.239-2.68-4.641-5.52-5.541-3.94-1.55-8.25-2.549-12.5-2.359-1.12 1.637-3.06 0.597-4.68 1.221-0.53 2.137-4.16 0.621-4.06 3.635-0.69 4.146-2.46 8.083-5.35 11.169-2.36 2.912-5.28 5.358-7.56 8.307 2.16 0.669 4.62-1.182 6.3-2.597 0.55-0.848 3.64-2.687 1.87-0.591-4.91 5.398-10.23 10.451-15.83 15.128-1.16 0.458-3.6 2.616-0.81 2.061 3.52-1.555 5.54-5.25 8.99-6.833 0.27 2.159-2.7 4.035-3.76 6.05-0.75 1.472-2.59 3.792-1.31 5.168 3.7-4.615 6.2-10.245 10.7-14.198 1.83 0.079-1.28 3.139-1.87 3.976-1.76 2.481-3.82 4.887-5.05 7.651 1 0.08 2.71-0.514 1.21 1.122-1.09 1.777-4.82 4.32-4.04 5.974 2.78-1.659 4.54-4.683 7.55-6.057 2.07-0.937-1.52 2.098-1.62 2.943-0.05 3.356-4.37 3.483-5.31 5.869 0.79 3.381 2.3 3.1 5.09 0.702zm3.74-11.541c0.29-1.409 1.61-4.183 2.94-3.882-0.2 1.199-1.76 4.44-2.94 3.882zm-83.03 10.559c-0.73-2.86-3.53 1.358-0.61 0.921 0.36-0.15 0.61-0.527 0.61-0.921zm8.54-0.934c-1.03-1.899-3.33-0.747-1.27 0.744 1.06 1.299 2.36 0.821 1.27-0.744zm-41.54-0.066c-0.73-2.86-3.53 1.358-0.61 0.921 0.36-0.15 0.61-0.527 0.61-0.921zm50.5 0c-0.79-2.238-4.04 0.029-1.55 0.921 0.57 0.216 2.1 0.047 1.55-0.921zm-21.5-1c-0.73-2.326-4.35-0.047-1.36 0.921 0.64 0.298 1.38-0.232 1.36-0.921zm37 0c-0.73-2.86-3.53 1.358-0.61 0.921 0.36-0.15 0.61-0.527 0.61-0.921zm-5.55-2.086c-2.37-2.28-2.55 3.354-0.04 1.231 0.25-0.354 0.27-0.861 0.04-1.231zm16.65-0.21c-2.86-2.49-1.91 3.725 0.44 1.357 0.33-0.489-0.11-1.023-0.44-1.357zm-71.6 0.296c-1.25-2.767-2.41 1.593-0.08 0.921 0.35-0.173 0.27-0.669 0.08-0.921zm26.6-2.296c-2.86-2.49-1.91 3.725 0.44 1.357 0.33-0.489-0.11-1.023-0.44-1.357zm12.9 1.296c-0.73-2.326-4.35-0.047-1.36 0.921 0.64 0.298 1.38-0.232 1.36-0.921zm27-0.893c-0.18-2.116-4.64-2.005-2.33 0.226 0.55 0.701 2.28 1.071 2.33-0.226zm17-0.107c-1.01-2.642-2.64 0.853-0.27 0.921 0.22-0.248 0.26-0.604 0.27-0.921zm-88-1.059c-0.65-1.972-3.42 1.841-0.61 0.975 0.37-0.166 0.61-0.569 0.61-0.975zm-14.81-0.624c-1.49-0.886-2.86 0.897-0.61 0.604 0.39 0.01 1.82-0.171 0.61-0.604zm24.81-0.258c-0.32-3.506-4.64-0.159-1.3 0.888 0.63 0.245 1.33-0.2 1.3-0.888zm54.45-1.145c-2.37-2.28-2.55 3.354-0.04 1.231 0.25-0.354 0.27-0.861 0.04-1.231zm17.55 1.086c-0.79-2.716-5.07 0.707-1.5 1 0.6 0 1.45-0.28 1.5-1zm-32-2.076c-1.46-2.023-4.78 2.845-1.2 1.304 0.51-0.281 1.11-0.672 1.2-1.304zm-32 0.076c-0.73-2.86-3.53 1.358-0.61 0.921 0.36-0.15 0.61-0.527 0.61-0.921zm9.19 0.317c-1.49-0.886-2.86 0.897-0.61 0.604 0.39 0.01 1.82-0.171 0.61-0.604zm63.81-0.317c-1.01-2.642-2.64 0.853-0.27 0.921 0.22-0.248 0.26-0.604 0.27-0.921zm-15-1c-0.79-2.716-5.07 0.707-1.5 1 0.6 0 1.45-0.28 1.5-1zm-94.46-1.067c1.92-3.651-4.3 1.017-1.26 0.983 0.51-0.182 0.97-0.526 1.26-0.983zm33.27-0.871c-0.23-3.295-4.92 3.098-1.2 1.477 0.53-0.362 0.98-0.866 1.2-1.477zm12.19-1.376c-1.09-1.982-4.83 1.085-3.76 2.912 1.44-0.449 3.12-1.472 3.76-2.912zm31.97 2.353c2.91-2.468-2.71-1.785-4.01-1.08-2.63 0.176-2.04 2.497 0.32 1.999 1.27-0.039 2.59-0.261 3.69-0.919zm-23.34-2.744c-1.81-1.742-5.54 3.295-2.05 1.914 0.67-0.426 2.19-0.939 2.05-1.914zm-56.63 0.705c-0.73-2.86-3.53 1.358-0.61 0.921 0.36-0.15 0.61-0.527 0.61-0.921zm8.97 0.039c3.5-3.376-5.62-1.372-2.21 0.9 0.81-0.034 1.53-0.496 2.21-0.9zm53.03-0.039c-0.79-2.716-5.07 0.707-1.5 1 0.6 0 1.45-0.28 1.5-1zm29 0c-0.73-2.86-3.53 1.358-0.61 0.921 0.36-0.15 0.61-0.527 0.61-0.921zm23 0c-0.04-1.569-3.12-1.784-3.94-1.816 0.56 1.045 3.4 4.434 3.94 1.816zm-82-2.059c-0.65-1.972-3.42 1.841-0.61 0.975 0.37-0.166 0.61-0.569 0.61-0.975zm11.5 0.059c-0.79-2.238-4.04 0.029-1.55 0.921 0.57 0.216 2.1 0.047 1.55-0.921zm46.5-2.276c-1.74-0.404-4.02 1.528-5.92 0.802 0.22 3.231 5.28 1.451 5.92-0.802zm-126 1.276c-0.777-0.752-5.016-1.413-4.178-0.407 1.259 0.297 4.638 1.952 4.698 0.778l-0.226-0.172-0.294-0.199zm162.23-2.04c1.09-1.014 2.18-2.027 3.27-3.041-2.81 1.938-5.87 3.564-8.43 5.811 1.74 0.872 3.74-1.799 5.16-2.77zm-172.5 1.347c-1.15-0.676-4.837 0.383-1.808 0.495 0.171 0.028 3.484 0.007 1.808-0.495zm64.271-0.307c-0.48-2.347-6.62-0.166-3.53 0.923 1.09 0.081 2.99 0.274 3.53-0.923zm-9.5-1c-0.1-2.614-6.05 0.293-2.06 1 0.77-0.027 1.6-0.348 2.06-1zm59.48 0.25c-0.3-2.855-3.71-3.97-6.17-4.013-2.25 1.412 1.82 4.419 3.74 4.288 0.67 0.014 2.43 0.948 2.43-0.275zm7.75 0.057c-1.15-0.676-4.84 0.383-1.81 0.495 0.17 0.028 3.48 0.007 1.81-0.495zm7.02-0.557c-0.84-2.619-5.29-1.529-2.27 0.766 0.76 0.629 2.79 0.796 2.27-0.766zm13.8-0.837c1.3-3.007-4.35-3.621-4.98-1.009 0.01 2.342 3.88 2.726 4.98 1.009zm8-0.663c0.01-2.852-6.67-0.952-3.52 0.789 1.1 0.901 4.01 1.681 3.52-0.789zm7.45 1.332c0.26-2.428-3.44-5.157-4.92-2.42-0.84 2.773 3.32 3.397 4.92 2.42zm12.56-1c1.76-0.726 1.59-3.34-0.52-1.757-1.33 0.332-4.87 3.847-1.58 2.956 0.75-0.298 1.44-0.727 2.1-1.199zm-111.1-1.643c-1.44-1.882-4.75 1.718-1.54 1.563 0.69-0.068 1.95-0.667 1.54-1.563zm7.74 0.861c-1.3-2.29-4.73 1.974-1.2 1.2 0.85 0.097 2.58-0.126 1.2-1.2zm66.8 0.2c-0.6-2.954-4.62 1.733-0.96 0.921 0.43-0.116 0.94-0.413 0.96-0.921zm28.35-1.586c-1.48-1.48-1.24-3.248 0.5-4.271-1.23-2.953-5.12 1.006-3.67 3.355-0.09 2.524 6.66 5.55 3.17 0.916zm-40.35 0.586c-0.7-2.011-5.25-0.083-5.29 0.799 1.65 0.049 4.14 0.617 5.29-0.799zm5.5-2c-0.79-2.238-4.04 0.029-1.55 0.921 0.57 0.216 2.1 0.047 1.55-0.921zm6.47 0.039c3.5-3.376-5.62-1.372-2.21 0.9 0.81-0.034 1.53-0.496 2.21-0.9zm-21.97-2.598c-0.38-2.247-6.94-2.051-5.49 0.505 1.43 1.127 5.63 2.865 5.49-0.505zm31 0.452c-1.24-2.517-6.4 0.519-2.53 1.653 0.98-0.073 2.34-0.544 2.53-1.653zm6.68 0.506c1.24-3.199-4.2-3.416-3.33-0.052 0.35 2.24 2.76 2.021 3.33 0.052zm-28.72-0.357c1.83-1.774-3.02-2.582-4.38-2.581-3.47 0.852-0.11 3.489 1.93 3.305 0.87 0.345 1.72-0.339 2.45-0.724zm35.54-0.042c2.01-4.536-5.88-1.058-1.89 0.922 0.76 0.195 1.52-0.284 1.89-0.922zm9.5-0.559c-1.52-1.992-3 2.474-0.61 0.784 0.23-0.221 0.55-0.44 0.61-0.784zm4-0.5c-1.19-3.27-3.35 3.001-0.61 1.245 0.32-0.338 0.59-0.765 0.61-1.245zm5 0.559c2.22-2.86-3.66-0.949-3.69 1.011 0.47 1.372 3.15-0.226 3.69-1.011zm-72-0.893c-0.01-3.086-5.51-2.328-3.31 0.652 0.84 1.068 3.25 1.01 3.31-0.652zm26-0.485c-0.21-2.931-4.91-3.36-4.36-0.116 1.05 0.56 3.77 1.693 4.36 0.116zm-33-1.622c0.02-2.401-4.54-1.588-1.74 0.301 0.93 1.046 1.82 2.032 1.74-0.301zm40 0.468c-0.27-3.302-7.13-1.296-3.43 0.8 1.01 0.274 3.06 0.501 3.43-0.8zm-47.81-1.651c-1.49-0.886-2.86 0.897-0.61 0.604 0.39 0.01 1.82-0.171 0.61-0.604zm24.81-0.701c0.09-2.089-5.65-2.182-2.71-4.068 1.72 0.965 5.86-0.001 3.17-2.199-2.7-2.143-5.49 1.897-6.32 4.201-1.12 2.984 2.67 4.281 4.87 3.105 0.44-0.187 0.98-0.501 0.99-1.039zm8.75 0.134c-0.79-2.239-6.84-2.247-3.9 0.667 0.97 0.614 4.03 1.228 3.9-0.667zm22.7 0.362c-1.27-1.351-6.76-3.209-5.03 0.298 1.02 0.599 5.08 1.246 5.03-0.298zm7.55-0.005c-0.44-2.174-5.76-2.575-3.16 0.256 0.75 0.627 2.9 1.126 3.16-0.256zm13-1.107c2.16-3.588-3.99-1.503-3.53 0.937 1.02 2.109 2.93 0.535 3.53-0.937zm11.46 1.069c1.25-3.927-5.84 1.156-1.82 0.912 0.67-0.093 1.4-0.338 1.82-0.912zm5.02-3.823c1.05-2.701 2.18-5.537 2.01-8.481-2-2.134-1.68 4.299-3.35 5.174-1.66 0.051 0.99-4.489-1.65-2.371-1.53 0.837-2.86 6.019-0.23 4.771 1.49-2.438 3.06 0.608 0.94 1.628-1.5 0.71-1.68 5.735 0.32 3.123 0.81-1.195 1.4-2.521 1.96-3.844zm-9.79 1.339c1.3-0.604 3.44-4.435 0.53-2.813-1.7 1.324-4.26 2.992-4.45 5.151 1.53-0.126 2.75-1.463 3.92-2.338zm-87.69 0.415c-0.73-2.86-3.53 1.358-0.61 0.921 0.36-0.15 0.61-0.527 0.61-0.921zm20-0.5c-0.43-2.229-6.44-2.228-5.76 0.321 1.08 1.75 5.07 1.71 5.76-0.321zm26.75-0.25c-0.16-2.393-6.65-1.355-5.02 1.153 1.48 0.994 4.15 0.393 5.02-1.153zm29.05 0.55c2.25-1.49 0.3-3.496-1.33-1.41-1.55 1.426-1.67 4.177 1.33 1.41zm-64.34-0.731c0.81-3.482-5.53-0.956-1.95 0.852 0.75 0.285 1.54-0.241 1.95-0.852zm41.34-0.269c2.24-1.437 0.57-5.592-1.25-2.276-0.5 0.704-2.82 5.771 1.25 2.276zm-59.61-0.483c-1.49-0.886-2.86 0.897-0.61 0.604 0.39 0.01 1.82-0.171 0.61-0.604zm46.28-0.267c-0.2-2.751-4.87-3.682-6.08-0.913 1.05 0.996 4.95 2.613 6.08 0.913zm22.5 0.2c-0.57-2.266-3.68-6.278-4.68-1.925-1.45 2.993 3.36 3.318 4.68 1.925zm8.53-1.25c1.76-3.66-4.14-2.287-3.38 0.514 0.88 0.881 2.71 0.443 3.38-0.514zm-65.5-1c-0.73-2.86-3.53 1.358-0.61 0.921 0.36-0.15 0.61-0.527 0.61-0.921zm44-1c-0.66-2.724-5.61-1.095-3.19 1.271 1.04 0.458 2.97 0.008 3.19-1.271zm31 1c-0.73-2.86-3.53 1.358-0.61 0.921 0.36-0.15 0.61-0.527 0.61-0.921zm23.97-8.334c-1.07-3.676-3.1 1.36-2.58 3.145 0.08 1.516-0.77 4.336-0.64 4.926 1.42-2.517 2.79-5.189 3.22-8.071zm-103.47 7.334c-0.1-2.614-6.05 0.293-2.06 1 0.77-0.027 1.6-0.348 2.06-1zm21.5 0.116c-0.89-1.449-5.83-2.717-5.52-0.061 1.08 1.274 4.48 1.336 5.52 0.061zm44.82-2.366c0.55-1.255 1.2-5.092-0.97-2.735-0.94 2.325-5.21 2.347-3.97-0.628 0.61-1.01 4.81-1.479 1.68-2.102-3.21-0.789-5.35 3.738-2.29 5.473 1.26 1.646 4.65 4.972 5.26 1.005 0.1-0.335 0.2-0.674 0.29-1.013zm-25.19-0.277c-0.86-3.008-7.85-0.352-4 1.503 1.38 0.151 5.69 1.541 4-1.503zm34.37 0.468c-1.19-3.27-3.35 3.001-0.61 1.245 0.32-0.338 0.59-0.765 0.61-1.245zm-62.25-0.191c-0.64-2.517-6.28-0.729-3.78 1.063 0.98 0.188 3.99 0.631 3.78-1.063zm43.25-0.309c-1.15-1.509-4.08 0.639-1.45 1.077 0.62 0.004 1.43-0.354 1.45-1.077zm32.6-1.17c-2.83-1.597-0.2 5.175 0.3 1.329 0.04-0.451 0.02-0.969-0.3-1.329zm-56.85 0.479c-0.75-1.609-6.32-2.74-5.4-0.208 1.06 0.754 5.58 2.534 5.4 0.208zm-8.83-1.161c2-3.609-3.94-1.816-4.76 0.256-0.33 2.276 3.99 0.822 4.76-0.256zm28.08 0.379c-0.27-3.302-7.13-1.296-3.43 0.8 1.01 0.274 3.06 0.501 3.43-0.8zm29 0.032c-0.79-2.716-5.07 0.707-1.5 1 0.6 0 1.45-0.28 1.5-1zm-64.43-2.429c1.99-1.168 1.25-3.344-1.06-2.484-2.57-0.242-6.14 3.897-1.75 3.861 1.06-0.107 2.06-0.629 2.81-1.377zm28.43-0.004c-0.33-2.333-4.89-3.374-5.63-0.9 0.84 1.058 5.7 3.713 5.63 0.9zm10.69-0.94l-2.82-2.301c1.39-1.128 3.56-1.78 3.98-3.664-2.92-1.579-5.38 2.991-4.46 5.589 0.14 2.166 4.67 3.721 5.18 2.047-0.56-0.622-1.24-1.13-1.88-1.671zm18.5 1.69c-1.49-0.886-2.86 0.897-0.61 0.604 0.39 0.01 1.82-0.171 0.61-0.604zm-38.94-1.831c-1.33-3.267-5.17 2.532-1.25 1.253 0.54-0.184 1.34-0.55 1.25-1.253zm44.24-0.502c-1.18-1.952-3.95 1.539-0.93 1.016 0.53 0.093 1.39-0.392 0.93-1.016zm-51.49-0.877c-0.33-2.649-6.71-1.997-3.77 0.509 1.09 0.392 3.19 0.798 3.77-0.509zm32.4-2.269c-2.06-1.873-4.46 3.974-1.13 2.327 0.7-0.478 1.52-1.414 1.13-2.327zm10.6 2.162c-0.6-2.954-4.62 1.733-0.96 0.921 0.43-0.116 0.94-0.413 0.96-0.921zm-21-0.893c-0.25-2.593-5.49-1.588-2.89 0.558 0.8 0.409 2.64 0.626 2.89-0.558zm33-0.166c-0.65-1.972-3.42 1.841-0.61 0.975 0.37-0.166 0.61-0.569 0.61-0.975zm-62-0.941c-0.6-2.954-4.62 1.733-0.96 0.921 0.43-0.116 0.94-0.413 0.96-0.921zm17.72-0.671c-0.4-2.72-6.34 1.98-2.04 1.467 0.82-0.208 1.71-0.633 2.04-1.467zm28.28 0.671c-0.73-2.326-4.35-0.047-1.36 0.921 0.64 0.298 1.38-0.232 1.36-0.921zm10 0.616c-0.86-1.521-6.02-1.117-2.78 0.312 0.89 0.081 2.01 0.2 2.78-0.312zm-46-2.83c-0.74-1.333-5.89 0.484-2.67 1.674 1.06 0.108 2.55-0.458 2.67-1.674zm33-1.345c-1.52-1.992-3 2.474-0.61 0.784 0.23-0.221 0.55-0.44 0.61-0.784zm-14.81-0.124c-1.49-0.886-2.86 0.897-0.61 0.604 0.39 0.01 1.82-0.171 0.61-0.604zm82.81-1.876c-0.5-4.16-4.68 2.584-1.18 2.132 0.78-0.377 1.18-1.297 1.18-2.132zm-61.27 0.866c-1.15-0.676-4.84 0.383-1.81 0.495 0.17 0.028 3.48 0.007 1.81-0.495zm33.47-1.319c-0.43-2.487 4.23-4.417 2.79-6.437-2.28 1.23-3.14 4.05-4.12 6.304-1.57 2.691 1.4 2.443 1.33 0.133zm6.11-2.527c0.31-1.08 2.32-4.06 1.23-4.22-1.84 1.88-3.59 4.03-4.51 6.509 0.24 3.392 2.89-1.281 3.28-2.289zm18.01 0.25c-3.26-1.73-1.61 5.693 0.01 1.615 0.16-0.513 0.26-1.115-0.01-1.615zm-13.3-0.28c0.76-1.27 1.73-5.94-0.69-2.98-1.09 1.22-3.85 4.826-1.21 5.466 0.98-0.471 1.51-1.524 1.9-2.486zm4.61 0.11c1.68-1.95-0.1-4.5-1.77-1.86-1.43 1.15-0.99 6.213 1.01 3.225 0.29-0.434 0.54-0.895 0.76-1.365zm4.69 1.057c1.31-3.277-3.57-3.007-2.25 0.171 0.18 1.849 1.97 1.198 2.25-0.171zm-89.32-26.657c-0.65-1.97-3.42 1.84-0.61 0.98 0.37-0.17 0.61-0.57 0.61-0.98zm4-1.06c-1.15-2.24-3.23 3.37-0.61 1.3 0.32-0.35 0.59-0.8 0.61-1.3zm3 0.06c-1.19-3.27-3.35 3-0.61 1.24 0.32-0.33 0.59-0.76 0.61-1.24zm7.25-0.74c1.43-0.66 2.58-4.1 0.15-2.04-0.86 0.93-2.5 2.22-2.67 0.26-1.68 0.27-5.8 4.82-1.83 3.91 1.56-0.41 3.09-1.09 4.35-2.13zm5.93-0.14c0.41 2.97 2.8-0.76 3.85-1.69 0.83-0.88 1.65-1.76 2.47-2.64-3.55 0.61-7.84 0.62-10.02 4.01-1.13 1.49 0 2.68 1.1 0.92 0.89-0.85 2.57-3.85 2.6-0.6zm8.82-0.12c-0.65-1.97-3.42 1.84-0.61 0.98 0.37-0.17 0.61-0.57 0.61-0.98zm32-8.94c-0.73-2.86-3.53 1.36-0.61 0.92 0.36-0.15 0.61-0.53 0.61-0.92zm-123.2 105.46c-10.51-0.898-21.1-0.239-31.61-1.158-2.39-0.54 2.48-0.693 3.23-0.773 9.56-0.411 19.16-0.546 28.71 0.122 1.67-0.16 3.85 1.485 1 1.805-0.42 0.058-0.93 0.255-1.33 0.004zm5.2-1.464c0.6-2.954 4.61 1.733 0.95 0.921-0.42-0.116-0.94-0.413-0.95-0.921zm121.25-0.072c-1.77-0.238-2.91-1.892-0.29-1.667 7.17-0.176 14.35-0.373 21.48-1.219 5.43-0.671 10.88-1.151 16.33-1.642 1.72-1.326 4.44-1.763 6.7-2.421 4.65-1.12 9.26-2.47 13.98-3.256 3.57-0.026-0.74 2.64-2.17 2.8-9.94 3.27-20.36 4.76-30.73 5.881-8.08 0.633-16.13 2.714-24.27 1.782l-0.57-0.117-0.46-0.141zm-186.25-4.928c-5.833-0.191-11.666-0.381-17.5-0.572 11.85-0.053 23.705-0.475 35.551-0.058 1.206-0.14 5.986 0.494 2.573 1.42-6.869-0.299-13.748-0.575-20.624-0.79zm53.082-1.931c-3.52-0.342-7.25-0.158-10.58-1.515-1.65-2.437-5.06-1.168-7.51-1.856-1.3-0.285-5.93-0.764-4.44-2.439 2.48-0.515 5.4 1.094 7.58-0.731 2.57-0.924 5.04 1.233 7.62 1.422 3.1 0.635 6.25 1.389 9.43 1.208 2.06 1.975 4.93 1.838 7.63 2.088 1.75-0.363 6.35 2.369 2.44 2.573-4.05-0.312-8.11-0.518-12.17-0.75zm185.48-8.967c-3.18-1.739 1.85-1.704 2.98-0.715 2.8 0.816 0.35 2.194-1.29 1.261-0.58-0.146-1.14-0.331-1.69-0.546zm-179.06-36.184c-1.58-0.251-3.77-0.213-5-0.829 4.89-0.488 9.85-0.013 14.7 0.646 1.49 0.024 2.86 1.368 0.5 1.014-3.41-0.146-6.8-0.519-10.2-0.831zm-8-3.614c-7.59-0.636-15.26-0.582-22.78-1.834-2.19-0.04-1.79-1.598 0.2-1.291 6.26 0.145 12.47 1.145 18.74 1.326 2.24 0.481 6.2-0.53 7.32 1.635-1.08 0.471-2.34 0.169-3.48 0.164z"/>
  </g>
  <metadata>
    <rdf:RDF>
      <cc:Work>
        <dc:format>image/svg+xml</dc:format>
        <dc:type rdf:resource="http://purl.org/dc/dcmitype/StillImage"/>
        <cc:license rdf:resource="http://creativecommons.org/licenses/publicdomain/"/>
        <dc:publisher>
          <cc:Agent rdf:about="http://openclipart.org/">
            <dc:title>Openclipart</dc:title>
          </cc:Agent>
        </dc:publisher>
      </cc:Work>
      <cc:License rdf:about="http://creativecommons.org/licenses/publicdomain/">
        <cc:permits rdf:resource="http://creativecommons.org/ns#Reproduction"/>
        <cc:permits rdf:resource="http://creativecommons.org/ns#Distribution"/>
        <cc:permits rdf:resource="http://creativecommons.org/ns#DerivativeWorks"/>
      </cc:License>
    </rdf:RDF>
  </metadata>
</svg>
